<svg xmlns="http://www.w3.org/2000/svg" xmlns:xlink="http://www.w3.org/1999/xlink" version="1.0" viewBox="68 90 200 200">
<rect x="68" y="90" width="200" height="200" fill="black" rx="75" ry="75"/>
<circle cx="168" cy="190" r="80" fill="dimgrey" />
<path fill="white" opacity="1.000000" stroke="none" d=" M128.959259,279.241699   C126.057930,276.946655 127.739685,273.781219 127.474533,271.003296   C127.419273,270.424316 128.564621,269.747925 128.535339,269.146698   C128.279266,263.889923 128.237381,263.891968 133.153748,263.533875   C132.414154,259.410980 131.954926,255.189880 130.817978,251.159958   C130.175491,248.882629 128.414734,246.922012 127.165047,244.814362   C126.029655,242.899475 124.045410,241.028870 123.929855,239.051422   C123.527664,232.168427 123.774391,225.247528 123.774391,217.228088   C120.644585,218.962006 119.041519,219.850113 117.151596,220.897141   C117.151596,224.243484 117.151596,228.015610 117.151596,231.787735   C116.646500,231.902222 116.141403,232.016693 115.636314,232.131165   C114.797424,230.508987 113.894913,228.915726 113.139809,227.255447   C112.536545,225.929047 112.505356,223.785706 111.543594,223.272125   C106.440071,220.546799 109.276642,217.742706 111.251991,214.502014   C111.581284,212.656754 111.781235,211.172028 111.894333,209.049530   C111.591217,207.257568 111.374969,206.103424 111.158722,204.949265   C111.158722,202.870010 111.158722,200.790756 111.158722,197.295853   C113.907837,199.262299 115.625542,200.490982 117.776016,202.134415   C118.780037,203.042145 119.351295,203.535095 119.922554,204.028046   C121.959824,206.417374 123.907967,209.058624 128.229218,206.588440   C129.845978,206.436829 130.841873,206.444122 131.837753,206.451416   C131.918350,208.012894 131.998947,209.574356 131.707932,211.705109   C128.553864,215.507324 126.801476,218.928909 129.032547,223.367004   C129.879410,222.378647 130.480499,221.677124 131.081589,220.975601   C131.554306,222.084457 132.027023,223.193329 132.801743,225.010620   C134.715073,222.471130 136.114883,220.553543 137.577225,218.684891   C140.504745,214.944016 143.507141,215.383072 145.779526,219.632767   C147.014252,221.941895 148.691193,224.014526 150.751801,226.552155   C152.744873,227.088379 154.154846,227.266296 155.780685,227.640610   C156.274338,227.781479 156.552139,227.725967 156.829926,227.670441   C156.580124,227.420990 156.330322,227.171555 155.989105,226.545532   C153.823196,219.222900 157.991058,213.972244 161.254105,208.283554   C157.491058,208.283554 154.241562,208.283554 150.992081,208.283539   C150.081512,208.029358 149.170929,207.775177 147.745209,207.379913   C146.539459,206.671814 145.848877,206.104767 145.158279,205.537720   C143.311661,204.203018 141.559662,202.705704 139.599915,201.565414   C134.587799,198.649109 132.972702,195.296707 133.967545,189.719116   C134.424637,187.156433 134.622635,184.547546 135.316040,181.434067   C136.509460,179.941864 137.324982,178.975220 138.140518,178.008560   C139.059219,177.249573 139.977936,176.490570 141.571533,175.174026   C142.320969,180.554535 142.936661,184.974792 143.811630,190.082214   C145.897644,199.407227 149.416412,202.994247 155.475983,202.146194   C156.784775,200.802628 158.244644,199.765198 159.848572,199.051620   C162.585190,197.834106 165.412247,196.819839 168.431458,195.741425   C168.661606,195.762634 169.089462,195.587708 169.347900,195.736572   C170.393036,195.953125 171.179749,196.020798 171.966461,196.088470   C172.985260,197.312714 174.004059,198.536957 175.247833,200.031525   C173.821854,203.391708 171.676910,207.398041 170.422836,211.666122   C168.850082,217.018753 170.767197,219.203125 176.456131,219.645950   C182.111801,220.086197 182.870819,221.223114 180.836105,226.206711   C178.993103,230.720764 180.392715,238.697113 183.961670,241.801987   C184.970993,242.680054 186.962479,242.835434 188.439789,242.687225   C191.828171,242.347260 195.177307,241.616119 199.088501,241.480011   C200.425232,242.220200 201.215851,242.524139 202.006470,242.828094   C203.500839,243.162933 205.614609,243.423080 202.744705,245.043533   C201.218140,245.905487 199.425766,246.296677 197.107178,246.890656   C195.792419,246.978867 195.123840,247.076797 194.455261,247.174713   C194.095779,247.347412 193.736282,247.520111 193.165649,247.745300   C192.954483,247.797791 192.927658,247.772446 192.927658,247.772446   C189.638199,246.935471 186.377609,245.267700 182.993500,247.534866   C182.652390,247.763397 181.747131,247.824615 181.668121,247.671753   C179.062576,242.630310 173.655472,246.657364 170.197708,244.143356   C169.348068,243.525604 167.667084,244.051285 166.332260,244.051285   C166.070648,246.157501 165.836472,248.042755 164.839142,249.921631   C163.505676,250.071350 162.935364,250.227448 162.693268,250.232315   C162.735458,249.717789 162.449478,249.354507 162.163483,248.991211   C162.258911,249.452942 162.354355,249.914673 162.795166,250.458832   C163.755905,250.754547 164.371246,250.967834 164.986603,251.181122   C167.628189,251.868393 170.269775,252.555664 172.944702,253.251602   C172.220169,257.466492 163.888031,251.872086 166.481094,259.968781   C163.948746,259.968781 161.897980,259.968781 159.136444,259.961853   C158.130783,260.349518 157.835892,260.744141 157.541016,261.138763   C157.996857,262.495758 158.569061,263.826477 158.882935,265.215546   C159.436981,267.667633 158.856674,269.401672 155.145782,269.188171   C154.653809,270.064301 154.854568,270.941528 155.055328,271.818726   C157.303482,276.999451 156.612930,278.235962 151.225098,279.648682   C148.646713,280.324738 144.353867,280.512024 148.889984,285.304230   C150.085358,286.296112 150.777069,286.911469 151.601440,287.644897   C151.731873,287.031555 151.852249,286.465546 151.972626,285.899536   C157.007080,285.692017 162.041550,285.484497 167.726471,285.616852   C169.252777,285.934204 170.128601,285.911652 171.004440,285.889130   C173.800751,285.889130 176.597076,285.889130 179.703079,285.889130   C179.412155,288.259521 179.071671,291.033813 178.288727,293.446930   C176.551880,292.679016 175.257477,292.272308 173.963074,291.865601   C173.841400,292.214417 173.719711,292.563202 173.598038,292.911987   C174.346725,293.261047 175.095428,293.610077 175.844116,293.959137   C176.504318,294.556366 177.164520,295.153564 177.970459,295.882629   C173.342911,299.382050 168.615295,301.581207 162.665955,299.314392   C160.884476,298.635590 158.765747,298.841949 156.304489,298.447449   C155.807449,298.252106 155.482819,298.055420 155.482819,298.055420   C155.401154,297.881836 155.319504,297.708252 155.285767,296.898285   C156.817688,290.441376 161.015549,293.118103 164.466766,293.294830   C166.841293,293.416443 169.227066,293.318176 171.607819,293.318176   C168.345230,291.573608 165.284653,290.407043 162.126358,290.001648   C158.874878,289.584290 155.528152,289.908966 152.471756,289.908966   C151.953674,291.889954 151.541168,293.467255 151.128662,295.044495   C149.043335,295.200897 146.958038,295.357300 144.294250,295.453278   C143.526550,295.916595 143.337296,296.440338 143.148041,296.964050   C144.876144,299.355225 146.604233,301.746399 148.846436,304.848938   C146.262131,309.379517 143.238602,304.902557 140.657013,304.161804   C138.991547,305.575531 137.468292,306.868591 135.885269,308.212341   C137.916504,310.024658 139.834076,311.735535 141.959320,314.029083   C142.780731,315.054810 143.394485,315.497894 144.008224,315.940948   C144.344864,317.642212 144.681519,319.343445 144.615021,321.371460   C143.811981,321.786346 143.412079,321.874481 142.585953,321.886139   C140.713745,322.223358 139.267761,322.637054 137.854004,323.389282   C138.395340,323.561737 138.904434,323.395660 139.672256,323.326721   C140.472565,323.386536 141.014145,323.349274 141.753113,323.597900   C143.075623,324.373444 144.200760,324.863068 145.325912,325.352661   C145.474243,324.630615 145.622589,323.908600 145.770920,323.186554   C146.898300,323.254883 148.025665,323.323181 149.599213,323.334473   C150.282120,323.202972 150.518845,323.128510 150.755585,323.054047   C150.491745,322.729218 150.227921,322.404358 149.964096,322.079529   C149.317108,320.289276 148.670135,318.499054 147.440903,315.097687   C153.667206,316.188293 160.140305,315.616791 164.185425,318.477966   C168.861404,321.785309 167.236908,328.823975 167.523117,334.610138   C162.930847,333.843262 158.623932,333.124054 153.370621,332.246796   C154.489960,333.788544 155.009720,334.504425 155.264740,335.610168   C141.645767,336.000000 128.291550,336.000000 114.395569,335.649506   C113.029510,334.752594 111.812393,334.389709 111.455109,333.625061   C110.415703,331.400665 108.532738,328.536865 109.221718,326.826721   C109.922386,325.087463 113.441330,323.285645 115.455032,323.553040   C118.508629,323.958557 121.299210,326.192810 124.257843,327.525116   C125.905151,328.266876 127.666458,328.755493 129.376373,329.358215   C129.649796,328.865112 129.923218,328.371979 130.196640,327.878876   C122.818054,325.840393 122.619522,315.605591 113.551407,315.630615   C115.642357,311.608185 117.866707,309.054901 121.691200,310.077698   C125.949715,311.216583 128.581665,309.538727 130.667572,306.492584   C126.774719,304.715088 122.893852,302.943054 119.012985,301.171021   C119.131035,300.784729 119.249077,300.398438 119.367126,300.012146   C120.794884,299.886749 122.222649,299.761322 124.286034,299.580078   C123.391663,297.736023 122.750076,296.413147 122.079338,295.030182   C123.347382,294.129883 124.595276,293.243866 126.064697,292.200592   C122.205727,291.171448 119.564514,289.277161 119.826813,285.005920   C121.526260,281.472107 124.458626,280.249451 128.842346,280.895569   C130.726501,282.462372 132.166870,283.528564 133.168716,284.912292   C136.083511,288.938232 139.699768,290.829620 145.423401,289.495972   C142.345917,286.605377 137.396652,286.278564 137.364319,281.346008   C137.362228,281.027679 135.979233,280.601074 135.193848,280.427917   C133.128860,279.972626 131.039124,279.629517 128.959259,279.241699  M163.210266,256.827271   C163.585312,256.681091 163.960358,256.534882 164.335403,256.388672   C163.976730,256.014954 163.618042,255.641235 162.677887,254.941803   C157.544556,250.792099 151.543106,250.826859 145.236343,252.233215   C151.077118,253.544312 156.917877,254.855408 163.210266,256.827271  M130.937637,230.512268   C128.811081,235.261780 130.890350,239.899643 135.608017,241.127975   C138.903168,241.985931 142.151642,243.022324 145.439774,243.909317   C145.822144,244.012451 146.324631,243.670212 146.682663,243.561417   C146.261154,242.088394 145.871796,240.727753 145.409775,239.113144   C137.880524,240.330048 134.128845,236.010147 130.937637,230.512268  M139.422012,266.714386   C139.170334,265.708649 138.918640,264.702911 138.588806,263.384949   C137.244370,264.094238 136.160187,264.666229 135.044571,265.254791   C139.215576,271.186432 140.325974,271.705109 145.071091,269.938538   C143.355988,268.959473 141.743179,268.038757 139.422012,266.714386  M141.283218,232.852859   C141.907806,232.514709 143.104584,232.085907 143.067627,231.852585   C142.733566,229.743881 142.183502,227.669403 141.617874,225.247086   C139.659775,227.043884 138.297043,228.294342 136.771317,229.694397   C138.228714,230.714432 139.419830,231.548111 141.283218,232.852859  z"/>
<path fill="white" opacity="1.000000" stroke="none" d=" M104.772659,211.495087   C103.583176,215.016235 102.482704,218.141769 101.382240,221.267288   C99.084686,215.564957 95.508179,212.211609 91.397278,208.597168   C86.888519,204.632919 83.771919,198.938461 80.587082,193.672348   C78.781578,190.686981 77.717834,187.126251 76.927040,183.685150   C75.874496,179.105072 77.918343,175.385056 80.483727,171.488434   C84.239281,165.784073 87.006386,159.428955 91.536644,153.175537   C91.828346,155.254761 92.462135,157.354599 92.338394,159.408798   C92.102753,163.320572 91.084045,167.201721 91.033257,171.103958   C90.967590,176.148178 93.969627,179.690201 98.251762,181.909912   C99.253334,182.429077 101.896202,181.883087 102.300125,181.080460   C103.828239,178.043869 104.953438,174.755814 105.838417,171.456985   C106.881950,167.567123 103.546738,165.972168 101.368050,163.713272   C96.645554,158.816864 98.299599,148.367767 104.172836,144.994995   C105.266235,144.367081 106.302109,143.638977 107.534874,142.847794   C110.650917,146.645233 112.722839,145.233978 114.901459,141.663879   C118.986412,134.969818 119.056053,135.123642 113.378006,129.435867   C110.644577,126.697754 109.200600,123.482376 111.885132,119.414009   C113.137520,121.637329 114.247055,124.176109 115.824265,127.187996   C117.529060,128.048157 118.766190,128.435226 120.003319,128.822281   C120.860458,132.232971 121.717598,135.643677 122.260117,139.665100   C120.637535,143.203964 119.329575,146.132111 118.021622,149.060242   C116.189758,149.875412 114.357895,150.690567 112.360214,151.901428   C112.194405,152.297134 112.205414,152.321762 112.205414,152.321762   C111.236923,152.003220 110.268433,151.684662 108.648117,151.873871   C107.996292,152.381607 107.948631,152.341522 107.948631,152.341522   C107.512016,151.962967 107.075394,151.584396 106.066971,151.173950   C105.620186,151.531219 105.745216,151.920349 105.870247,152.309494   C106.820488,157.320786 107.770729,162.332092 108.944183,168.520569   C111.602097,163.310547 113.583015,159.427536 116.164703,154.366913   C115.554512,162.513641 115.071770,168.958832 114.828003,175.999084   C115.284142,177.097031 115.501289,177.599930 115.718445,178.102844   C115.622719,179.202744 115.527000,180.302658 115.031982,181.825806   C114.080894,182.811050 113.529114,183.373062 112.977325,183.935074   C110.921402,186.009033 108.865486,188.082993 106.350044,190.620605   C105.316689,193.390564 104.742844,195.696884 104.168999,198.003204   C104.399887,202.368622 104.630775,206.734039 104.772659,211.495087  z"/>
<path fill="white" opacity="1.000000" stroke="none" d=" M205.041733,238.181686   C203.313370,238.162811 201.585007,238.143936 199.263260,237.818527   C198.116425,237.285751 197.562973,237.059525 197.009521,236.833282   C195.663849,232.285980 191.753937,233.334198 188.053650,232.831543   C187.320511,232.523605 187.040314,232.320770 186.760132,232.117935   C186.287933,227.668839 183.712799,223.293747 186.204453,218.744110   C186.905594,217.463821 187.585449,216.001617 188.682632,215.144745   C190.809174,213.484039 193.305069,212.300385 195.466644,210.677597   C196.033310,210.252151 196.420273,208.584213 196.061157,208.094528   C194.008606,205.295578 192.061096,202.234558 189.400009,200.112747   C185.910294,197.330246 184.744446,193.952026 186.517929,190.369781   C188.879181,185.600266 192.185471,181.298599 195.085800,176.795944   C195.731705,177.055984 196.377625,177.316025 197.023529,177.576050   C197.023529,178.473816 197.023529,179.371597 196.616608,180.695496   C195.773941,182.005814 195.338211,182.889984 194.579681,183.953857   C193.283112,186.377228 192.023270,188.550644 191.448334,190.892227   C191.129486,192.190826 191.955078,193.770401 192.452820,196.105148   C194.089081,191.925354 195.140625,189.239212 196.467041,186.408813   C197.546646,185.339737 198.351395,184.414932 199.156128,183.490143   C201.269409,182.160248 203.382660,180.830368 205.961624,179.329239   C206.978546,178.975235 207.529739,178.792480 208.080948,178.609741   C208.392746,178.523911 208.704559,178.438095 209.624573,177.840179   C210.324280,176.545868 210.415787,175.763672 210.507294,174.981461   C210.507294,171.494324 210.507294,168.007187 210.507294,163.408859   C212.327805,167.632706 213.784485,171.012390 215.464722,175.133255   C214.360672,179.167130 213.792877,183.146957 211.557556,185.618805   C205.735580,192.056839 205.331177,195.976868 211.120117,202.263885   C211.310226,202.605591 211.647552,202.703735 212.266571,202.987656   C214.253494,204.458740 215.958725,205.744049 217.755127,207.303818   C218.131378,207.811142 218.416458,208.043991 218.776062,208.675995   C219.189072,216.079041 216.099045,220.451050 210.225571,221.402786   C211.165283,223.715027 212.115540,226.053192 213.453262,229.344742   C207.944443,227.998947 203.979660,227.030365 199.097626,225.837692   C200.866669,228.470551 202.643295,230.712875 203.943909,233.203751   C204.703094,234.657730 204.701218,236.509094 205.041733,238.181686  z"/>
<path fill="white" opacity="1.000000" stroke="none" d=" M246.990311,198.748138   C248.598907,198.973419 250.201813,199.260147 251.817398,199.410034   C254.428436,199.652252 257.047821,199.804489 260.243256,200.036865   C260.692108,201.976547 259.148102,203.503799 255.914490,203.839478   C254.492065,203.987137 253.088287,204.314590 251.020874,204.669159   C249.888275,205.125977 249.410889,205.474045 248.571518,205.862366   C247.877365,206.604477 247.545181,207.306351 247.212982,208.008209   C246.851074,213.998230 246.857513,220.039658 246.030518,225.964767   C245.077011,232.796188 241.897644,235.253799 235.138412,235.592758   C230.462479,235.827240 223.806427,242.198318 224.428558,246.789032   C225.930923,247.916702 227.100540,248.417938 228.270142,248.919189   C228.204407,249.380997 228.138687,249.842819 227.961700,250.675476   C227.850464,251.046341 227.820496,251.156601 227.820496,251.156601   C219.226593,252.010880 217.311584,250.738327 215.307007,242.110947   C217.144516,239.489960 218.683029,237.340057 220.567917,235.556168   C223.112442,233.147964 225.035721,231.240860 224.083664,226.879776   C222.651367,220.318848 224.080582,218.097107 227.990265,216.392044   C227.990265,218.278366 227.990265,220.165863 227.990265,223.621719   C229.968704,221.520050 231.823822,220.482666 231.947617,219.268753   C232.855621,210.364456 240.397797,205.443115 243.637665,197.073990   C242.290359,194.273163 243.335800,188.672440 237.523758,186.793167   C233.899170,185.621201 232.743530,182.607437 233.031281,178.749725   C233.453934,178.042740 233.751022,177.583328 234.446075,177.088913   C235.878220,177.082214 236.912415,177.110535 237.914978,177.521713   C238.314423,179.343887 238.745514,180.783188 239.176590,182.222488   C239.798248,182.279480 240.419891,182.336487 241.041550,182.393494   C242.206589,178.329010 243.371628,174.264526 244.536682,170.200043   C245.342896,169.441971 246.149094,168.683884 247.113480,167.777069   C252.407166,172.153717 248.086899,176.212891 246.843964,180.842377   C246.182693,182.614639 245.805832,183.813217 245.428955,185.011780   C245.651489,189.068192 245.874023,193.124619 246.138062,197.831329   C246.179596,198.481644 246.513885,198.831085 246.513885,198.831085   C246.513885,198.831085 246.990311,198.748138 246.990311,198.748138  M223.992691,242.550644   C223.760986,242.478668 223.529282,242.406693 223.297577,242.334717   C223.376907,242.557831 223.456238,242.780945 223.992691,242.550644  z"/>
<path fill="white" opacity="1.000000" stroke="none" d=" M141.151489,121.522873   C141.869446,121.408203 142.587402,121.293541 143.940857,121.118340   C144.769028,120.736488 144.961685,120.415176 145.154343,120.093857   C145.154343,120.093857 145.060486,120.060135 145.445282,120.098663   C147.312027,118.793381 148.793991,117.449562 150.275955,116.105743   C150.890335,114.800697 151.504700,113.495651 152.468994,111.709839   C153.304977,111.130409 153.791061,111.031754 154.277130,110.933098   C153.851807,114.143242 153.426483,117.353394 152.845032,121.741852   C157.424576,121.222694 161.771927,120.839905 166.067169,120.138069   C166.810837,120.016548 167.608963,118.632118 167.913528,117.681030   C169.752747,111.937378 172.119492,106.983582 179.369949,106.780022   C180.728622,106.741875 182.043259,105.135536 184.040573,104.120819   C185.162643,103.895538 185.622345,103.802322 186.082062,103.709114   C186.389648,107.878830 183.240601,108.967827 179.860519,110.584686   C179.290848,111.016975 179.137863,111.086861 178.718506,111.115143   C178.240021,111.343987 178.027878,111.614441 177.845184,111.901993   C177.874619,111.919090 177.840683,111.859596 177.840683,111.859596   C176.530457,113.663643 175.220245,115.467697 173.662323,117.889923   C173.529938,118.665878 173.645264,118.823669 173.760605,118.981461   C174.181549,121.909752 176.059067,125.196716 172.828857,127.488945   C167.872665,131.005951 162.508575,131.924469 156.315536,128.390533   C154.081284,127.065903 152.465897,126.056396 150.850525,125.046898   C150.819305,124.868088 150.788101,124.689285 150.720825,124.088333   C150.528610,123.798073 150.372513,123.929970 150.216400,124.061867   C143.434692,128.384949 135.887695,128.205811 127.150146,127.787697   C130.811600,125.945992 133.571548,124.557747 136.987808,123.091515   C138.813248,122.516647 139.982361,122.019760 141.151489,121.522873  z"/>
<path fill="white" opacity="1.000000" stroke="none" d=" M133.025681,155.933472   C131.164719,153.903793 129.303772,151.874130 127.785316,149.374161   C130.827393,149.676926 133.884262,149.891479 136.150787,151.341461   C140.612320,154.195694 145.187668,155.283066 150.396439,154.882324   C149.132462,146.371841 149.397125,145.147705 153.135864,141.397522   C157.116821,140.257385 161.097763,139.117249 165.548004,138.375259   C165.900620,139.504013 165.783966,140.234619 165.667328,140.965225   C161.690369,142.680939 157.713394,144.396637 153.366333,146.638123   C153.091675,147.861893 153.187103,148.559875 153.307037,149.612061   C153.526840,150.643753 153.722137,151.321259 153.917435,151.998749   C154.506790,153.821472 155.096130,155.644196 156.165649,157.726349   C156.872528,158.311203 157.099258,158.636642 157.402344,159.170959   C157.634857,159.643646 157.850845,159.842407 158.179260,160.342026   C161.620392,164.420212 160.244217,167.321228 156.675446,169.848923   C153.787155,171.880569 150.898880,173.912216 146.448105,177.042923   C146.241333,173.806732 146.115173,171.832260 146.342133,169.327240   C146.737869,167.862213 146.780487,166.927719 146.823120,165.993240   C145.950363,164.567612 145.335922,162.842117 144.129959,161.803284   C142.994492,160.825165 141.235489,160.570938 139.208145,159.675827   C136.785553,158.213440 134.905624,157.073456 133.025681,155.933472  z"/>
<path fill="white" opacity="1.000000" stroke="none" d=" M172.441010,189.052155   C172.293335,189.484070 172.145676,189.915985 171.622086,190.670135   C169.924454,189.064072 168.602737,187.135773 166.503525,184.073181   C166.718018,187.515457 166.859680,189.788879 167.012665,192.091888   C167.023987,192.121460 167.060471,192.173233 166.733154,191.838348   C161.176758,191.973389 155.910599,192.814590 151.013031,189.965912   C150.989960,188.910416 150.966904,187.854904 151.251984,186.168793   C151.929245,184.430069 152.298370,183.321960 152.667511,182.213852   C155.854630,180.980164 159.041748,179.746475 162.715149,178.078735   C165.058960,176.791855 166.916504,175.939041 168.774048,175.086227   C169.813782,179.549805 170.853531,184.013397 172.198914,188.738617   C172.504547,189.000275 172.441010,189.052155 172.441010,189.052155  z"/>
<path fill="white" opacity="1.000000" stroke="none" d=" M228.998016,157.140045   C228.446243,156.562149 227.894470,155.984253 227.199402,154.821091   C227.203262,151.768890 227.350449,149.301971 227.497620,146.835037   C224.764175,143.873611 222.023666,140.918671 219.299393,137.948837   C216.835678,135.263062 216.195312,128.401794 218.159180,124.995461   C218.417053,124.548172 219.182663,124.121567 219.674805,124.161201   C220.128220,124.197708 220.835876,124.832863 220.896896,125.277672   C221.075439,126.579269 220.987259,127.917450 220.727264,129.624878   C220.636368,130.244400 220.821777,130.480377 221.007172,130.716354   C221.432022,131.414627 221.856888,132.112915 222.633728,133.212265   C223.317291,133.762039 223.648849,133.910736 223.980423,134.059433   C227.205475,136.716446 230.430527,139.373459 234.010681,142.426147   C234.365753,142.821823 234.830551,142.995697 234.830566,142.995697   C234.652206,146.430374 234.473846,149.865051 233.835052,153.761627   C231.915756,155.195694 230.456894,156.167862 228.998016,157.140045  z"/>
<path fill="white" opacity="1.000000" stroke="none" d=" M185.788208,163.531372   C186.253098,167.624405 189.590714,163.927658 191.029602,165.974640   C191.093643,166.665543 191.130203,166.835983 191.166748,167.006424   C188.453796,170.683868 185.740860,174.361328 182.633942,178.526917   C181.819748,179.235901 181.399536,179.456741 180.979324,179.677582   C178.272079,177.043427 175.564850,174.409286 172.327133,171.389404   C170.710876,169.332504 169.625092,167.661331 168.650482,165.884842   C168.927124,165.633102 169.009445,165.449417 169.384308,165.191895   C170.507339,165.060532 171.254654,164.965698 172.312943,164.998749   C173.419327,165.504745 174.214722,165.882828 175.165283,166.557037   C177.486374,168.635651 179.652283,170.418152 181.839767,172.218414   C182.885956,171.294708 184.065048,170.253662 185.514236,168.974152   C182.922394,166.142151 180.542236,163.541458 178.029175,160.628723   C176.619537,158.818283 175.342819,157.319870 173.963623,155.538269   C173.431305,154.835358 173.001495,154.415649 172.571671,153.995926   C173.768661,150.982468 175.727005,151.416794 177.496872,153.204468   C179.573242,155.301712 181.339951,157.705521 183.525574,160.502075   C184.469528,161.862320 185.128860,162.696838 185.788208,163.531372  z"/>
<path fill="white" opacity="1.000000" stroke="none" d=" M190.631393,136.100113   C194.083496,132.468124 198.186874,130.866623 203.531143,132.463089   C204.261642,133.328583 204.651474,133.802826 205.017365,134.565613   C203.583755,137.002899 202.174072,139.151672 200.584793,141.312134   C200.168289,141.440598 200.035080,141.630173 199.615601,141.965759   C196.781021,143.259720 194.336411,144.480469 191.569275,145.721863   C190.831299,145.833176 190.415863,145.923874 189.708038,145.970062   C188.943848,146.277100 188.472046,146.628662 188.000259,146.980209   C186.993469,146.615128 185.986679,146.250046 184.486954,146.133133   C183.994034,146.381302 183.947037,146.347015 183.947037,146.347015   C184.581512,144.534225 185.215973,142.721420 186.274902,140.469879   C187.132874,139.560944 187.566406,139.090790 187.999939,138.620636   C188.179840,138.586288 188.359772,138.551971 188.855713,138.797363   C189.658279,138.084747 190.144836,137.092438 190.631393,136.100113  z"/>
<path fill="white" opacity="1.000000" stroke="none" d=" M145.316589,136.694168   C143.286133,136.980927 141.576294,137.099930 139.096039,137.210815   C137.002762,138.140625 135.679871,139.078568 134.356995,140.016510   C134.713089,140.437241 135.069183,140.857956 135.425278,141.278687   C136.618454,140.481186 137.811646,139.683685 139.004822,138.886200   C140.026352,139.219467 141.047867,139.552734 142.209717,139.931778   C139.987503,142.385422 138.028397,144.548569 135.939270,146.855286   C135.149948,143.998062 129.453964,147.308121 127.980606,142.363617   C127.368149,138.707184 129.809067,137.163452 131.976639,135.814713   C135.026062,133.917252 138.159882,132.056534 142.189102,133.268082   C144.267105,133.892914 146.597046,133.679916 149.224442,134.796844   C148.028687,135.373367 146.832947,135.949890 145.316589,136.694168  M133.313858,142.789536   C133.018356,142.368790 132.722870,141.948059 132.427383,141.527313   C132.487900,142.103577 132.548416,142.679840 133.313858,142.789536  z"/>
<path fill="white" opacity="1.000000" stroke="none" d=" M202.910477,153.190704   C202.811707,159.254425 201.322174,160.693954 194.438385,160.572418   C191.980637,159.182419 190.078995,158.060913 188.177353,156.939392   C188.144409,155.738220 188.111465,154.537033 188.442383,152.793411   C190.153641,152.016937 191.501038,151.782898 193.189789,151.652222   C196.657593,152.233963 199.784027,152.712326 202.910477,153.190704  z"/>
<path fill="white" opacity="1.000000" stroke="none" d=" M136.181763,167.008392   C133.395874,169.645996 130.744049,172.452042 127.753464,174.832489   C126.664680,175.699127 124.768822,175.551819 123.241196,175.867096   C123.112694,173.742325 122.060234,170.913025 123.037483,169.631393   C125.486534,166.419525 128.854752,163.908524 132.316238,160.892120   C133.335297,161.139114 133.892380,161.610382 134.120041,162.206924   C130.837997,165.524048 127.885376,168.715897 124.932755,171.907745   C125.607933,172.441742 126.283104,172.975723 126.958275,173.509705   C129.585693,169.744308 132.213120,165.978912 135.206696,162.326874   C136.046692,162.630692 136.520508,162.821106 136.994339,163.011520   C136.988785,163.179276 136.983231,163.347031 136.943924,164.057800   C136.667374,165.403336 136.424576,166.205872 136.181763,167.008392  z"/>
<path fill="white" opacity="1.000000" stroke="none" d=" M236.066422,167.073303   C233.339828,167.739090 230.613220,168.404892 227.389984,168.994781   C226.893356,168.918900 226.519043,169.018661 226.519043,169.018661   C226.612457,167.921646 226.705872,166.824631 226.888428,165.323471   C227.925873,163.817032 228.874176,162.714737 230.234283,161.188416   C232.339523,160.227982 234.032959,159.691559 235.482056,159.373627   C235.047333,159.958954 234.856949,160.325775 234.666565,160.692596   C235.477707,160.652405 236.288879,160.612213 237.100037,160.572021   C237.358994,161.510147 237.617920,162.448273 238.111816,164.067474   C238.289474,165.500244 238.232178,166.251923 238.124298,167.350220   C238.128311,168.160461 238.182907,168.624100 237.965088,169.051575   C237.150589,168.368042 236.608505,167.720673 236.066422,167.073303  z"/>
<path fill="white" opacity="1.000000" stroke="none" d=" M189.007050,257.822662   C190.252426,258.218994 191.497787,258.615295 193.151459,259.441284   C193.793152,260.249817 194.026566,260.628662 194.259979,261.007507   C193.809143,265.071991 191.135727,265.265991 188.189468,264.167389   C184.908676,262.944061 182.122437,260.997620 182.350479,256.893494   C182.367599,256.585236 183.569763,256.342834 184.792908,256.512634   C186.578857,257.244537 187.792953,257.533600 189.007050,257.822662  z"/>
<path fill="white" opacity="1.000000" stroke="none" d=" M229.229630,256.085297   C224.750198,257.758270 221.793961,262.743073 215.986191,261.717346   C218.189682,260.288788 220.393188,258.860199 223.052017,257.111389   C224.062454,256.392029 224.617569,255.992935 225.172699,255.593811   C225.918518,255.085434 226.664337,254.577072 227.932495,253.902618   C228.454803,253.736557 228.910278,253.622421 228.961731,254.112549   C229.045944,254.929520 229.078705,255.256363 229.144287,255.707947   C229.177139,255.832687 229.229630,256.085297 229.229630,256.085297  z"/>
<path fill="white" opacity="1.000000" stroke="none" d=" M230.889969,250.963669   C233.692871,248.844131 236.495758,246.724594 239.298645,244.605042   C239.142365,249.467056 235.329605,251.167114 231.842728,253.911133   C230.833984,254.170471 230.376678,254.110992 229.602814,253.803864   C229.820831,252.692047 230.355392,251.827866 230.889969,250.963669  z"/>
<path fill="white" opacity="1.000000" stroke="none" d=" M215.292114,146.657181   C215.806442,147.620941 216.132553,148.245819 216.820282,149.254761   C218.105591,150.798599 219.029282,151.958389 219.952957,153.118164   C220.152100,154.999756 220.351242,156.881363 220.587631,159.114990   C219.895004,158.751083 219.376266,158.478531 218.487671,157.693237   C217.013290,155.022232 215.908737,152.863983 214.804199,150.705750   C213.791458,148.980331 212.778717,147.254913 211.765976,145.529495   C211.956894,145.271149 212.147827,145.012802 212.338745,144.754456   C213.260468,145.275726 214.182175,145.796997 215.292114,146.657181  z"/>
<path fill="white" opacity="1.000000" stroke="none" d=" M210.835266,257.950562   C208.017639,258.671906 205.550446,261.816162 202.044098,256.910614   C205.356293,256.208984 207.939346,255.637344 210.547867,255.228149   C210.625702,255.215942 210.970856,256.907806 210.835266,257.950562  z"/>
<path fill="white" opacity="1.000000" stroke="none" d=" M165.639130,159.031158   C166.235443,159.928253 166.532425,160.677872 166.869049,162.110657   C166.960556,163.861572 167.012405,164.929291 167.064240,165.997025   C166.600296,166.588821 166.136337,167.180618 165.762283,167.657745   C164.730011,164.766403 163.752228,162.027725 162.361191,158.834351   C161.573212,157.921097 161.198502,157.462540 160.883270,156.648682   C161.594681,155.876221 162.246582,155.459045 162.898483,155.041870   C163.712265,156.322464 164.526047,157.603073 165.639130,159.031158  z"/>
<path fill="white" opacity="1.000000" stroke="none" d=" M219.447968,208.079987   C219.194321,207.713760 219.224121,207.549637 219.095032,207.192291   C219.270447,204.606735 219.604782,202.214417 219.944931,199.112976   C219.651398,197.930618 219.352066,197.457397 219.052734,196.984177   C220.059647,193.803619 221.066574,190.623077 222.424377,187.474030   C224.386322,188.881866 224.386322,188.881866 226.526764,185.818298   C226.526764,190.586716 226.212692,195.214752 226.613861,199.779922   C227.026459,204.475189 228.136887,209.109100 228.987198,214.031723   C223.369171,214.414719 221.151398,211.907928 219.447968,208.079987  z"/>
<path fill="white" opacity="1.000000" stroke="none" d=" M229.825195,253.680817   C229.931870,254.391006 229.822708,254.800766 229.412506,255.396866   C229.078705,255.256363 229.045944,254.929520 228.961731,254.112549   C229.143311,253.541763 229.376343,253.461090 229.825195,253.680817  z"/>
</svg>